<mxfile host="app.diagrams.net" modified="2023-08-28T09:56:24.450Z" agent="Mozilla/5.0 (Macintosh; Intel Mac OS X 10_15_7) AppleWebKit/537.36 (KHTML, like Gecko) Chrome/118.0.0.0 Safari/537.36 Edg/118.0.0.0" version="21.6.9" etag="Igrjj8_HJlR0YbCKJxUO" type="github">
  <diagram name="PÃ¡gina-1" id="aZSmRM0oRbDf6rdTAcJA">
    <mxGraphModel>
      <root>
        <mxCell id="0" />
        <mxCell id="1" parent="0" />
      </root>
    </mxGraphModel>
  </diagram>
</mxfile>
